<?xml version="1.0" standalone="no"?><!DOCTYPE svg PUBLIC "-//W3C//DTD SVG 1.1//EN" "http://www.w3.org/Graphics/SVG/1.1/DTD/svg11.dtd"><svg t="1611504703420" class="icon" viewBox="0 0 1024 1024" version="1.1" xmlns="http://www.w3.org/2000/svg" p-id="1568" xmlns:xlink="http://www.w3.org/1999/xlink" width="128" height="128"><defs><style type="text/css"></style></defs><path d="M669.866667 729.6c-8.533333 0-14.933333 2.133333-21.333334 6.4L616.533333 704v-72.533333l85.333334-42.666667v-145.066667l-85.333334-42.666666v-74.666667l29.866667-29.866667c6.4 4.266667 12.8 6.4 21.333333 6.4 23.466667 0 42.666667-19.2 42.666667-42.666666s-19.2-42.666667-42.666667-42.666667-42.666667 19.2-42.666666 42.666667c0 8.533333 2.133333 14.933333 6.4 21.333333l-36.266667 36.266667v100.266666l85.333333 42.666667v117.333333l-85.333333 42.666667v98.133333l38.4 38.4c-4.266667 6.4-6.4 12.8-6.4 21.333334 0 23.466667 19.2 42.666667 42.666667 42.666666s42.666667-19.2 42.666666-42.666666c0-27.733333-19.2-49.066667-42.666666-49.066667zM667.733333 234.666667c12.8 0 21.333333 8.533333 21.333334 21.333333s-8.533333 21.333333-21.333334 21.333333-21.333333-8.533333-21.333333-21.333333 10.666667-21.333333 21.333333-21.333333z m2.133334 558.933333c-12.8 0-21.333333-8.533333-21.333334-21.333333s8.533333-21.333333 21.333334-21.333334 21.333333 8.533333 21.333333 21.333334-8.533333 21.333333-21.333333 21.333333z m-298.666667-57.6c-6.4-4.266667-12.8-6.4-21.333333-6.4-23.466667 0-42.666667 19.2-42.666667 42.666667s19.2 42.666667 42.666667 42.666666 42.666667-19.2 42.666666-42.666666c0-8.533333-2.133333-14.933333-6.4-21.333334l38.4-38.4v-98.133333l-85.333333-42.666667v-117.333333l85.333333-42.666667v-100.266666l-36.266666-36.266667c4.266667-6.4 6.4-14.933333 6.4-21.333333 0-23.466667-19.2-42.666667-42.666667-42.666667s-42.666667 19.2-42.666667 42.666667 19.2 42.666667 42.666667 42.666666c8.533333 0 14.933333-2.133333 21.333333-6.4l29.866667 29.866667v74.666667l-85.333333 42.666666v145.066667l85.333333 42.666667v72.533333l-32 38.4z m-21.333333 57.6c-12.8 0-21.333333-8.533333-21.333334-21.333333s8.533333-21.333333 21.333334-21.333334 21.333333 8.533333 21.333333 21.333334-8.533333 21.333333-21.333333 21.333333z m2.133333-516.266667c-12.8 0-21.333333-8.533333-21.333333-21.333333s8.533333-21.333333 21.333333-21.333333 21.333333 8.533333 21.333333 21.333333-10.666667 21.333333-21.333333 21.333333z m573.866667 55.466667l-113.066667-64c-6.4-4.266667-12.8-12.8-14.933333-19.2L768 160c-4.266667-17.066667-21.333333-34.133333-38.4-40.533333l-194.133333-70.4c-8.533333-6.4-17.066667-6.4-25.6-6.4-6.4 0-17.066667 0-27.733334 4.266666l-194.133333 70.4c-17.066667 6.4-34.133333 23.466667-40.533333 40.533334l-29.866667 87.466666c-2.133333 6.4-10.666667 14.933333-14.933333 19.2l-113.066667 64C76.8 343.466667 64 364.8 64 384v236.8c0 19.2 10.666667 40.533333 25.6 51.2l115.2 81.066667c6.4 4.266667 14.933333 14.933333 17.066667 21.333333l29.866666 87.466667c6.4 17.066667 23.466667 34.133333 40.533334 40.533333l194.133333 70.4c8.533333 8.533333 17.066667 8.533333 25.6 8.533333 6.4 0 17.066667 0 27.733333-4.266666l194.133334-70.4c17.066667-6.4 34.133333-23.466667 40.533333-40.533334l29.866667-87.466666c2.133333-6.4 10.666667-17.066667 17.066666-21.333334l115.2-81.066666c12.8-14.933333 23.466667-36.266667 23.466667-55.466667V384c-4.266667-19.2-17.066667-40.533333-34.133333-51.2zM488.533333 936.533333l-185.6-68.266666c-4.266667-2.133333-12.8-8.533333-12.8-14.933334l-29.866666-87.466666c-4.266667-14.933333-19.2-34.133333-32-42.666667l-115.2-81.066667c-2.133333-8.533333-6.4-17.066667-6.4-21.333333V512h66.133333c4.266667 19.2 21.333333 32 40.533333 32 23.466667 0 42.666667-19.2 42.666667-42.666667s-19.2-42.666667-42.666667-42.666666c-19.2 0-36.266667 12.8-40.533333 32H106.666667v-106.666667c0-4.266667 4.266667-10.666667 8.533333-12.8l113.066667-64c14.933333-8.533333 29.866667-25.6 34.133333-42.666667l29.866667-87.466666c0-6.4 6.4-14.933333 10.666666-17.066667l185.6-68.266667v844.8zM192 501.333333c0-12.8 8.533333-21.333333 21.333333-21.333333s21.333333 8.533333 21.333334 21.333333-8.533333 21.333333-21.333334 21.333334c-12.8 2.133333-21.333333-6.4-21.333333-21.333334z m721.066667-10.666666h-66.133334c-4.266667-19.2-21.333333-32-40.533333-32-23.466667 0-42.666667 19.2-42.666667 42.666666s19.2 42.666667 42.666667 42.666667c19.2 0 36.266667-12.8 40.533333-32h66.133334v108.8c0 4.266667-4.266667 12.8-8.533334 17.066667L789.333333 721.066667c-12.8 8.533333-27.733333 27.733333-32 42.666666l-29.866666 87.466667c-2.133333 4.266667-8.533333 12.8-12.8 14.933333l-185.6 68.266667V89.6l185.6 68.266667c4.266667 2.133333 12.8 8.533333 12.8 14.933333l29.866666 87.466667c6.4 17.066667 19.2 34.133333 34.133334 42.666666l113.066666 64c4.266667 2.133333 8.533333 8.533333 8.533334 12.8V490.666667z m-85.333334 10.666666c0 12.8-8.533333 21.333333-21.333333 21.333334s-21.333333-8.533333-21.333333-21.333334 8.533333-21.333333 21.333333-21.333333 21.333333 8.533333 21.333333 21.333333z" fill="#1296db" p-id="1569"></path></svg>